# xmcd
#
# Track frame offsets:
#	150
#	18165
#	32473
#	42518
#	51363
#	67331
#	77293
#	90899
#	107339
#	124743
#	140421
#	154926
#	163295
#	173287
#	190111
#	206342
#
# Disc length: 3004
#
# Revision: 1
# Processed by: cddbd v1.5.1PL0 Copyright (c) Steve Scherf et al.
# Submitted via: VisiTrax 2.9.10.228 - For more info visit www.synapsa.com
# Normalized: r0:DSETVAR1
#
DISCID=c30bba10
DTITLE=Various Artist - THE COUNTRY CHRISTMAS COLLECTION
DYEAR=2003
DGENRE=
TTITLE0=Don Mclean - White Christmas
TTITLE1=Jim Reeves - Mary's Boy Child
TTITLE2=Freddy Fender - Blue Christmas
TTITLE3=Loretta Lynn - Frosty The Snowman
TTITLE4=Lonestar - I'll Be Home For Christmas
TTITLE5=George Strait - Santa Claus Is Coming To Town
TTITLE6=Crystal Gayle - Amazing Grace
TTITLE7=Daniel O'Donnell - When A Child Is Born
TTITLE8=The Gatlin Brothers - The First Noel
TTITLE9=Reba McEntire - The Christmas Song
TTITLE10=Hank Williams - At The First Fall Of Snow
TTITLE11=Kitty Wells - Santa's On His Way
TTITLE12=Gene Autry - Here Comes Santa Claus
TTITLE13=Vince Gill - It Won't Be The Same This Year
TTITLE14=John Denver - Little Drummer Boy
TTITLE15=Nanci Griffith - From A Distance
EXTD=
EXTT0=
EXTT1=
EXTT2=
EXTT3=
EXTT4=
EXTT5=
EXTT6=
EXTT7=
EXTT8=
EXTT9=
EXTT10=
EXTT11=
EXTT12=
EXTT13=
EXTT14=
EXTT15=
PLAYORDER=
